<?xml version="1.0" encoding="UTF-8" standalone="no"?>
<svg
    width="77.194"
    height="53.261"
    viewBox="0 0 77.194 53.261"
    version="1.1"
    id="svg5"
    sodipodi:docname="cloud2.svg"
    inkscape:version="1.2.1 (9c6d41e410, 2022-07-14)"
    xmlns:inkscape="http://www.inkscape.org/namespaces/inkscape"
    xmlns:sodipodi="http://sodipodi.sourceforge.net/DTD/sodipodi-0.dtd"
    xmlns="http://www.w3.org/2000/svg"
    xmlns:svg="http://www.w3.org/2000/svg">
   <defs
       id="defs9" />
   <sodipodi:namedview
       id="namedview7"
       pagecolor="#505050"
       bordercolor="#ffffff"
       borderopacity="1"
       inkscape:showpageshadow="0"
       inkscape:pageopacity="0"
       inkscape:pagecheckerboard="1"
       inkscape:deskcolor="#505050"
       showgrid="false"
       inkscape:zoom="14.607311"
       inkscape:cx="36.077825"
       inkscape:cy="26.66473"
       inkscape:window-width="1920"
       inkscape:window-height="1057"
       inkscape:window-x="-8"
       inkscape:window-y="-8"
       inkscape:window-maximized="1"
       inkscape:current-layer="svg5" />
   <g
       id="noun_Cloud_1188486"
       transform="translate(-5.8 -20.6)">
      <g
          id="Group_8"
          data-name="Group 8"
          transform="translate(6.8 21.6)">
         <path
             id="Path_13"
             data-name="Path 13"
             d="M39.262,72.861a14.468,14.468,0,0,1-12.793-7.746,13.6,13.6,0,1,1-6.527-25.761,18.322,18.322,0,0,1-.174-2.176A15.541,15.541,0,0,1,50.4,33.436a13.065,13.065,0,0,1,6.092-1.392,13.5,13.5,0,0,1,13.49,12.1,12.248,12.248,0,0,1,12.01,11.923A11.931,11.931,0,0,1,64.153,66.42,9.2,9.2,0,0,1,50.228,67.9,14.45,14.45,0,0,1,39.262,72.861ZM26.73,64.071H26.9q.131,0,.261.261A13.378,13.378,0,0,0,39.349,71.99a13.234,13.234,0,0,0,10.618-5.135.452.452,0,0,1,.348-.174c.174,0,.261,0,.348.174A8.351,8.351,0,0,0,63.8,65.55a.538.538,0,0,1,.609-.174,10.569,10.569,0,0,0,5.831,1.654A11.068,11.068,0,0,0,81.3,55.977,11.393,11.393,0,0,0,70.071,44.924h-.435a.411.411,0,0,1-.435-.435,12.726,12.726,0,0,0-18.8-10.1.388.388,0,0,1-.435,0c-.087-.087-.261-.174-.261-.348A14.682,14.682,0,0,0,20.638,37a11.815,11.815,0,0,0,.261,2.524.523.523,0,0,1-.087.348.452.452,0,0,1-.348.174,12.706,12.706,0,1,0-.087,25.413,13.669,13.669,0,0,0,6.092-1.48A.32.32,0,0,0,26.73,64.071Z"
             transform="translate(-6.8 -21.6)"
             fill="#f47775"
             stroke="#f47775"
             stroke-width="2" />
      </g>
   </g>
   <path
       style="fill:#f4f7f8;fill-opacity:1;stroke-width:0.245669;stroke-linecap:round;paint-order:markers stroke fill;stop-color:#000000"
       d="M 29.409637,1.7573339 C 24.776,1.7671586 20.217338,4.1303198 17.574007,7.9422987 15.700184,10.600172 14.731539,13.88501 14.920188,17.13656 c -0.02615,0.674946 0.228835,1.339025 0.185957,2.006385 -0.208952,0.491918 -0.849467,0.314308 -1.268353,0.389355 -3.745922,0.19642 -7.332712,2.184632 -9.493729,5.249142 -2.5047046,3.409508 -3.0737473,8.107051 -1.4867074,12.024427 1.4009479,3.614784 4.5632752,6.463631 8.2912784,7.514297 1.717043,0.531635 3.552297,0.505095 5.324014,0.345236 1.484963,-0.221934 2.919645,-0.710319 4.267181,-1.366503 0.253573,0.156404 0.619726,0.139815 0.699029,0.497396 0.752863,1.541782 1.809998,2.918891 3.080511,4.070456 1.875479,1.763124 4.323702,2.873853 6.848432,3.310266 1.772198,0.262629 3.603989,0.206496 5.352385,-0.188816 2.90952,-0.674528 5.530886,-2.397064 7.390191,-4.723643 0.232796,-0.32173 0.733117,-0.242876 0.923125,0.08611 2.181944,2.237233 5.679825,3.06411 8.623497,1.991188 1.809773,-0.599795 3.284838,-1.920206 4.370986,-3.455433 0.15127,-0.227197 0.487585,-0.117986 0.703977,-0.09654 1.658583,1.012506 3.595338,1.621184 5.549982,1.555968 1.744116,0.0507 3.48669,-0.3358 5.045834,-1.119386 3.79295,-1.84115 6.346097,-6.030624 6.078066,-10.262168 -0.207451,-4.966589 -4.171179,-9.471696 -9.054552,-10.35619 -0.911672,-0.216423 -1.863331,-0.166754 -2.777068,-0.327807 -0.342043,-0.217926 -0.188763,-0.720525 -0.302638,-1.052 -0.554741,-4.271259 -3.451035,-8.15225 -7.413067,-9.857306 -1.579254,-0.696916 -3.297752,-1.1284 -5.033423,-1.033082 -1.294692,-0.04427 -2.599226,0.06813 -3.828878,0.499067 -0.937304,0.249153 -1.769949,0.7876 -2.698381,1.04613 C 43.772759,13.715582 43.8078,13.031438 43.645888,12.609748 42.252124,7.1044054 37.34267,2.6958203 31.714909,1.9169821 30.952187,1.8039955 30.18066,1.7504245 29.409637,1.7573339 Z"
       id="path410" />
</svg>
