<svg width="47" height="48" viewBox="0 0 47 48" fill="none" xmlns="http://www.w3.org/2000/svg">
<path d="M45.1797 19.396C45.2666 19.4194 45.3535 19.4307 45.4394 19.4307C45.8808 19.4307 46.2851 19.1357 46.4043 18.689C46.5468 18.1558 46.2304 17.6074 45.6972 17.4644L39.4442 15.7889L43.6406 13.3662C44.1191 13.0898 44.2832 12.4785 44.0068 12C43.7295 11.521 43.1162 11.3569 42.6406 11.6338L38.4466 14.0554L40.1211 7.80566C40.2636 7.27197 39.9472 6.72412 39.414 6.58105C38.8828 6.43848 38.332 6.75439 38.1894 7.28809L35.9973 15.4695L29.0347 19.4897C27.8552 17.9747 26.1209 16.9736 24.2207 16.7108V8.67041L30.2099 2.68066C30.6006 2.29004 30.6006 1.65723 30.2099 1.2666C29.8193 0.875977 29.1865 0.875977 28.7959 1.2666L24.2207 5.84222V1C24.2207 0.447754 23.7734 0 23.2207 0C22.6679 0 22.2207 0.447754 22.2207 1V5.84418L17.6435 1.2666C17.2529 0.875977 16.6201 0.875977 16.2295 1.2666C15.8388 1.65723 15.8388 2.29004 16.2295 2.68066L22.2207 8.67236V16.7108C20.3185 16.9737 18.5827 17.9757 17.4053 19.4889L10.4416 15.4717L8.24903 7.28809C8.10743 6.75439 7.5586 6.4375 7.02442 6.58105C6.49122 6.72412 6.17481 7.27197 6.31739 7.80566L7.99024 14.0493L3.79981 11.6338C3.32032 11.3569 2.70899 11.5225 2.43458 12.0005C2.15821 12.479 2.32325 13.0903 2.80177 13.3662L7.00135 15.787L0.741218 17.4644C0.208014 17.6074 -0.108392 18.1558 0.0341859 18.689C0.153326 19.1357 0.557628 19.4307 0.999028 19.4307C1.08497 19.4302 1.17188 19.4194 1.2588 19.396L9.44084 17.2036L16.4012 21.2189C16.0412 22.0923 15.8506 23.0372 15.8506 24C15.8506 24.9654 16.0417 25.9127 16.4008 26.7827L9.44434 30.8036L1.2588 28.6104C0.728518 28.4668 0.176764 28.7837 0.0341859 29.3174C-0.108392 29.8506 0.208014 30.3989 0.741218 30.542L6.98829 32.2159L2.80079 34.6338C2.32227 34.9102 2.15821 35.522 2.43458 36C2.62013 36.3208 2.95606 36.5 3.30177 36.5C3.47169 36.5 3.64356 36.457 3.80079 36.3662L7.99348 33.9449L6.31739 40.2007C6.17481 40.7344 6.49122 41.2822 7.02442 41.4253C7.11134 41.4487 7.19825 41.46 7.28419 41.46C7.72559 41.4595 8.12989 41.165 8.24903 40.7183L10.4409 32.5376L17.403 28.5129C18.5763 30.0331 20.312 31.0377 22.2207 31.3002V39.334L16.2295 45.3252C15.8388 45.7158 15.8388 46.3486 16.2295 46.7393C16.6201 47.1299 17.2529 47.1299 17.6435 46.7393L22.2207 42.1621V47C22.2207 47.5522 22.6679 48 23.2207 48C23.7734 48 24.2207 47.5522 24.2207 47V42.1641L28.7959 46.7393C28.9912 46.9346 29.247 47.0322 29.5029 47.0322C29.7588 47.0322 30.0146 46.9346 30.2099 46.7393C30.6006 46.3486 30.6006 45.7158 30.2099 45.3252L24.2207 39.3359V31.3002C26.1328 31.0374 27.8712 30.0312 29.0407 28.5137L35.9952 32.5289L38.1894 40.7183C38.3086 41.165 38.7129 41.46 39.1543 41.46C39.2402 41.46 39.3271 41.4487 39.414 41.4253C39.9472 41.2822 40.2636 40.7344 40.1211 40.2007L38.4444 33.943L42.6416 36.3662C42.7988 36.457 42.9707 36.5 43.1396 36.5C43.4853 36.5 43.8222 36.3203 44.0068 35.9995C44.2832 35.521 44.1181 34.9097 43.6396 34.6338L39.4513 32.2156L45.6972 30.542C46.2304 30.3989 46.5468 29.8506 46.4043 29.3174C46.2627 28.7837 45.7138 28.4663 45.1797 28.6104L37.0021 30.8015L30.0399 26.7819C30.4001 25.9081 30.5908 24.9631 30.5908 24C30.5908 23.0356 30.3998 22.0894 30.0404 21.218L36.995 17.2029L45.1797 19.396ZM27.8654 26.6783L27.8642 26.6797L27.8632 26.6827L27.8623 26.6846C26.917 28.3408 25.1377 29.3701 23.2207 29.3701C21.3037 29.3701 19.5244 28.3408 18.5722 26.6714C18.0996 25.873 17.8506 24.9492 17.8506 24C17.8506 23.0508 18.0996 22.127 18.5761 21.3208C19.5332 19.6675 21.3125 18.6401 23.2207 18.6401C25.1289 18.6401 26.9082 19.6675 27.8691 21.3286C28.3418 22.127 28.5908 23.0508 28.5908 24C28.5908 24.9469 28.3426 25.8683 27.8654 26.6783Z" fill="#164A68"/>
</svg>
