<svg width="70" height="73" viewBox="0 0 70 73" fill="none" xmlns="http://www.w3.org/2000/svg">
<path d="M68.1025 29.4981C68.2335 29.5337 68.3646 29.5508 68.4941 29.5508C69.1595 29.5508 69.7689 29.1023 69.9485 28.4228C70.1634 27.6119 69.6864 26.778 68.8827 26.5604L59.4571 24.0123L65.7826 20.3278C66.5039 19.9075 66.7512 18.9777 66.3346 18.25C65.9166 17.5215 64.9921 17.272 64.2752 17.6931L57.9533 21.3759L60.4774 11.8711C60.6923 11.0595 60.2153 10.2263 59.4116 10.0087C58.6108 9.79185 57.7806 10.2723 57.5657 11.084L54.2614 23.5266L43.7661 29.6407C41.9881 27.3366 39.3739 25.8141 36.5096 25.4144V13.1862L45.5376 4.07684C46.1264 3.48277 46.1264 2.52037 45.5376 1.92629C44.9488 1.33221 43.9949 1.33221 43.4061 1.92629L36.5096 8.88505V1.52083C36.5096 0.680959 35.8354 0 35.0022 0C34.169 0 33.4948 0.680959 33.4948 1.52083V8.88802L26.5954 1.92629C26.0066 1.33221 25.0527 1.33221 24.4639 1.92629C23.875 2.52037 23.875 3.48277 24.4639 4.07684L33.4948 13.1892V25.4143C30.6276 25.8142 28.011 27.3381 26.2363 29.6394L15.7394 23.5298L12.4343 11.084C12.2209 10.2723 11.3936 9.79036 10.5884 10.0087C9.78467 10.2263 9.30773 11.0595 9.52264 11.8711L12.0443 21.3666L5.72772 17.6931C5.00495 17.272 4.08345 17.5237 3.66981 18.2507C3.25322 18.9785 3.502 19.9082 4.2233 20.3278L10.5536 24.0094L1.11729 26.5604C0.313554 26.778 -0.163387 27.6119 0.0515309 28.4228C0.23112 29.1023 0.840545 29.5508 1.50591 29.5508C1.63545 29.5501 1.76646 29.5337 1.89747 29.4981L14.2308 26.1638L24.7227 32.2704C24.1801 33.5988 23.8927 35.0357 23.8927 36.5C23.8927 37.9682 24.1809 39.4088 24.7221 40.732L14.2361 46.8472L1.89747 43.5116C1.09815 43.2933 0.266449 43.7752 0.0515309 44.5869C-0.163387 45.3978 0.313554 46.2317 1.11729 46.4493L10.5339 48.995L4.22182 52.6722C3.50052 53.0925 3.25322 54.023 3.66981 54.75C3.9495 55.2379 4.45588 55.5104 4.97698 55.5104C5.23312 55.5104 5.4922 55.4451 5.72919 55.3069L12.0491 51.6246L9.52264 61.1385C9.30773 61.9502 9.78467 62.7834 10.5884 63.001C10.7194 63.0366 10.8504 63.0537 10.98 63.0537C11.6453 63.0529 12.2548 62.6052 12.4343 61.9257L15.7383 49.4843L26.2329 43.3633C28.0015 45.6753 30.6177 47.2031 33.4948 47.6024V59.8204L24.4639 68.9321C23.875 69.5261 23.875 70.4885 24.4639 71.0826C25.0527 71.6767 26.0066 71.6767 26.5954 71.0826L33.4948 64.1215V71.4792C33.4948 72.319 34.169 73 35.0022 73C35.8354 73 36.5096 72.319 36.5096 71.4792V64.1245L43.4061 71.0826C43.7005 71.3797 44.0862 71.5282 44.4719 71.5282C44.8575 71.5282 45.2432 71.3797 45.5376 71.0826C46.1264 70.4885 46.1264 69.5261 45.5376 68.9321L36.5096 59.8234V47.6024C39.3919 47.2026 42.0123 45.6725 43.7752 43.3646L54.2582 49.4711L57.5657 61.9257C57.7452 62.6052 58.3547 63.0537 59.02 63.0537C59.1496 63.0537 59.2806 63.0366 59.4116 63.001C60.2153 62.7834 60.6923 61.9502 60.4774 61.1385L57.95 51.6216L64.2767 55.3069C64.5137 55.4451 64.7728 55.5104 65.0274 55.5104C65.5485 55.5104 66.0564 55.2371 66.3346 54.7493C66.7512 54.0215 66.5024 53.0918 65.7811 52.6722L59.4677 48.9945L68.8827 46.4493C69.6864 46.2317 70.1634 45.3978 69.9485 44.5869C69.735 43.7752 68.9077 43.2925 68.1025 43.5116L55.7759 46.844L45.2814 40.7307C45.8243 39.402 46.1117 37.9648 46.1117 36.5C46.1117 35.0334 45.8238 33.5943 45.282 32.269L55.7652 26.1628L68.1025 29.4981ZM42.0035 40.5733L42.0018 40.5754L42.0002 40.58L41.9988 40.5828C40.5739 43.1017 37.8918 44.6671 35.0022 44.6671C32.1126 44.6671 29.4305 43.1017 27.9953 40.5627C27.2828 39.3486 26.9075 37.9436 26.9075 36.5C26.9075 35.0564 27.2828 33.6514 28.0012 32.4254C29.4438 29.911 32.1258 28.3485 35.0022 28.3485C37.8786 28.3485 40.5606 29.911 42.0091 32.4373C42.7216 33.6514 43.097 35.0564 43.097 36.5C43.097 37.9401 42.7229 39.3414 42.0035 40.5733Z" fill="#164A68"/>
</svg>
